<svg width="49" height="48" viewBox="0 0 49 48" fill="none" xmlns="http://www.w3.org/2000/svg">
<g clip-path="url(#clip0_152_251)">
<mask id="mask0_152_251" style="mask-type:luminance" maskUnits="userSpaceOnUse" x="0" y="0" width="49" height="48">
<path d="M0.5 3.8147e-06H48.5V48H0.5V3.8147e-06Z" fill="white"/>
</mask>
<g mask="url(#mask0_152_251)">
<path d="M34.1094 30.5739C34.1094 28.3153 36.5469 28.743 36.5469 26.4844C36.5469 24.2258 34.1094 24.6534 34.1094 22.3948V18.622M34.1026 22.4223C35.9844 22.4223 36.4464 21.5658 36.4464 20.5092V18.4688C36.4464 17.8215 35.9217 17.2969 35.2745 17.2969C34.6273 17.2969 34.1026 17.8215 34.1026 18.4688M14.8906 18.622V22.3948C14.8906 24.6534 12.4531 24.2258 12.4531 26.4844C12.4531 28.743 14.8906 28.3153 14.8906 30.5739M40.4468 30.4145C37.9598 6.13125 36.2996 3.06544 29.4687 3.32813C29.4687 3.32813 27.9687 0.703129 24.5 0.703129C21.0312 0.703129 19.5312 3.32813 19.5312 3.32813C12.2187 3.04688 10.8318 6.58013 8.01266 35.8748M40.9873 35.8748C40.9152 35.1263 40.8442 34.3946 40.7739 33.6793M19.1749 7.125C7.56866 4.17188 4.625 19.1719 1.25 47.2969M47.75 47.2969C44.375 19.1719 41.4313 4.17188 29.8251 7.125M35.75 47.2969V46.2656C35.75 43.3144 33.3575 40.9219 30.4062 40.9219C28.2917 40.9219 25.7637 42.5994 24.5 43.5C23.2363 42.5994 20.7083 40.9219 18.5937 40.9219C15.6425 40.9219 13.25 43.3144 13.25 46.2656V47.2969M28.9399 30.5136C28.9399 33.9844 29.9045 35.225 33.125 36.2344C39.4062 38.2031 41.5625 40.0781 41.5625 47.2969M12.3087 37.5774C13.312 37.0958 14.4938 36.6673 15.875 36.2344C19.0955 35.225 20.0601 33.9844 20.0601 30.5136M9.61484 39.4409C8.06122 41.0778 7.4375 43.4145 7.4375 47.2969M14.8974 18.4688C14.8974 17.8215 14.3727 17.2969 13.7255 17.2969C13.0782 17.2969 12.5536 17.8215 12.5536 18.4688V20.5092C12.5536 21.5658 13.0156 22.4223 14.8974 22.4223M34.1094 20.4728C34.1094 17.6908 33.0202 15.2648 31.5029 13.9947C29.9857 12.7248 28.1624 11.4844 28.1624 9.18375C28.1624 13.7738 23.777 15.1121 20.396 16.3142C17.015 17.5163 14.8974 18.0932 14.8974 20.8752M34.1094 20.4728V15.0938C34.1094 9.78666 29.8071 5.48438 24.5 5.48438C21.5238 5.48438 18.8637 6.83738 17.1011 8.96185M34.1094 20.4728C34.1094 26.7064 29.8071 31.7597 24.5 31.7597C19.1929 31.7597 14.8906 26.7064 14.8906 20.4728V15.0938C14.8906 13.9341 15.096 12.8225 15.4724 11.7932M26.8713 17.1541C27.988 16.561 29.7983 16.561 30.9148 17.1541M22.1287 17.1541C21.012 16.561 19.2017 16.561 18.0852 17.1541M22.0107 20.7417C21.1707 21.5817 19.8087 21.5817 18.9687 20.7417M26.9892 20.7417C27.8292 21.5817 29.1912 21.5817 30.0312 20.7417M21.97 26.7583C23.3672 28.3294 25.6328 28.3294 27.03 26.7583M22.0001 44.3519C22.0001 45.5586 22.8915 45.9902 24.5 47.2969C26.1085 45.9902 26.9999 45.5586 26.9999 44.3519C26.9999 43.5967 26.3877 42.9844 25.6324 42.9844C25.1613 42.9844 24.746 43.2226 24.5 43.585C24.254 43.2226 23.8387 42.9844 23.3676 42.9844C22.6123 42.9844 22.0001 43.5967 22.0001 44.3519Z" stroke="url(#paint0_linear_152_251)" stroke-width="1.5" stroke-miterlimit="10" stroke-linecap="round" stroke-linejoin="round"/>
</g>
</g>
<defs>
<linearGradient id="paint0_linear_152_251" x1="1.25" y1="24" x2="47.75" y2="24" gradientUnits="userSpaceOnUse">
<stop stop-color="#F1458D"/>
<stop offset="1" stop-color="#EC0A52"/>
</linearGradient>
<clipPath id="clip0_152_251">
<rect width="48" height="48" fill="white" transform="translate(0.5)"/>
</clipPath>
</defs>
</svg>
