<svg width="41" height="40" viewBox="0 0 41 40" fill="none" xmlns="http://www.w3.org/2000/svg">
<path d="M37.1666 13.3334V21.6667C37.1666 28.3334 33.8333 31.6667 27.1666 31.6667H26.3333C25.8166 31.6667 25.3166 31.9167 24.9999 32.3334L22.4999 35.6667C21.3999 37.1334 19.5999 37.1334 18.4999 35.6667L15.9999 32.3334C15.7333 31.9667 15.1166 31.6667 14.6666 31.6667H13.8333C7.16659 31.6667 3.83325 30 3.83325 21.6667V13.3334C3.83325 6.66671 7.16659 3.33337 13.8333 3.33337H20.4999" stroke="#E65D5F" stroke-width="2" stroke-miterlimit="10" stroke-linecap="round" stroke-linejoin="round"/>
<path d="M25.8332 7.70005C25.2832 6.05005 25.9332 4.01672 27.7332 3.45005C28.6666 3.16672 29.8332 3.40005 30.4999 4.28339C31.1332 3.36672 32.3332 3.16672 33.2666 3.45005C35.0666 4.00005 35.7166 6.05005 35.1666 7.70005C34.3166 10.3167 31.3332 11.6667 30.4999 11.6667C29.6666 11.6667 26.7166 10.3334 25.8332 7.70005Z" stroke="#E65D5F" stroke-width="2" stroke-linecap="round" stroke-linejoin="round"/>
<path d="M27.1608 18.3333H27.1758" stroke="#E65D5F" stroke-width="2" stroke-linecap="round" stroke-linejoin="round"/>
<path d="M20.4924 18.3333H20.5074" stroke="#E65D5F" stroke-width="2" stroke-linecap="round" stroke-linejoin="round"/>
<path d="M13.8242 18.3333H13.8391" stroke="#E65D5F" stroke-width="2" stroke-linecap="round" stroke-linejoin="round"/>
</svg>
