<svg width="41" height="40" viewBox="0 0 41 40" fill="none" xmlns="http://www.w3.org/2000/svg">
<path d="M20.5 20C25.1023 20 28.8333 16.2691 28.8333 11.6667C28.8333 7.06433 25.1023 3.33337 20.5 3.33337C15.8976 3.33337 12.1666 7.06433 12.1666 11.6667C12.1666 16.2691 15.8976 20 20.5 20Z" stroke="#41E242" stroke-width="2" stroke-linecap="round" stroke-linejoin="round"/>
<path d="M32.5166 26.2334L26.6165 32.1334C26.3832 32.3668 26.1666 32.8 26.1166 33.1167L25.7999 35.3667C25.6832 36.1833 26.2499 36.75 27.0666 36.6334L29.3165 36.3167C29.6332 36.2667 30.0832 36.05 30.2999 35.8167L36.1999 29.9167C37.2165 28.9001 37.6999 27.7167 36.1999 26.2167C34.7165 24.7333 33.5333 25.2167 32.5166 26.2334Z" stroke="#41E242" stroke-width="2" stroke-miterlimit="10" stroke-linecap="round" stroke-linejoin="round"/>
<path d="M31.6666 27.0834C32.1666 28.8834 33.5666 30.2833 35.3666 30.7833" stroke="#41E242" stroke-width="2" stroke-miterlimit="10" stroke-linecap="round" stroke-linejoin="round"/>
<path d="M6.18335 36.6667C6.18335 30.2167 12.6001 25 20.5001 25C22.2334 25 23.9 25.25 25.45 25.7167" stroke="#41E242" stroke-width="2" stroke-linecap="round" stroke-linejoin="round"/>
</svg>
