<svg width="49" height="48" viewBox="0 0 49 48" fill="none" xmlns="http://www.w3.org/2000/svg">
<g clip-path="url(#clip0_152_241)">
<path d="M24.9311 37.3956C24.8478 37.1724 24.8829 36.922 25.0245 36.7304C25.568 35.9952 25.7761 35.2885 25.6431 34.63C25.4855 33.8499 24.8911 33.2572 24.5 32.9413C24.1083 33.2577 23.5143 33.8503 23.3568 34.63C23.2238 35.2886 23.4319 35.9953 23.9753 36.7305C24.117 36.9221 24.1522 37.1725 24.0688 37.3957C23.2654 39.5475 22.6927 42.156 22.5318 42.9271C22.5465 42.9574 22.5612 42.9876 22.5757 43.0174C23.2998 44.5003 24.0301 45.567 24.4998 46.1843C24.977 45.5556 25.7246 44.4589 26.4665 42.9198C26.3038 42.1401 25.733 39.5431 24.9311 37.3956ZM21.9785 34.3379C22.3502 32.5335 24.072 31.511 24.1451 31.4685C24.3645 31.3406 24.6356 31.3406 24.8549 31.4684C24.928 31.511 26.6498 32.5334 27.0216 34.3379C27.2201 35.3021 27.0036 36.2801 26.3777 37.2499C26.7955 38.4233 27.1425 39.6689 27.399 40.6898C28.2144 38.4137 28.8539 35.5286 28.8539 32.0769V29.4541C28.8539 29.4496 28.8539 29.4451 28.8539 29.4404V29.295C27.4989 30.1186 26.0207 30.5524 24.5 30.5524C22.9794 30.5524 21.501 30.1185 20.1462 29.295V29.441V29.4537V32.077C20.1462 35.5848 20.8152 38.4906 21.6003 40.6927C21.857 39.6712 22.2042 38.4245 22.6224 37.25C21.9964 36.2802 21.7798 35.3021 21.9785 34.3379ZM31.1552 9.89896C30.5052 9.38592 30.4175 8.80919 30.4175 8.31277V6.83967C30.2839 6.9723 30.1409 7.09685 29.9885 7.21295C27.7321 8.93233 24.0464 8.26731 22.0504 7.71791C20.6574 7.33449 19.5186 7.07374 18.5824 6.99691V8.31277C18.5824 8.80928 18.4947 9.38601 17.8447 9.89896C17.3126 10.3189 15.5766 11.9061 15.5766 14.7V17.6941C15.5766 20.5696 16.551 23.4813 18.2498 25.6827C19.972 27.9144 22.1916 29.1434 24.4999 29.1434C26.8083 29.1434 29.0279 27.9144 30.7501 25.6827C32.4489 23.4812 33.4233 20.5695 33.4233 17.6941V14.7C33.4233 11.9061 31.6873 10.3189 31.1552 9.89896ZM13.698 14.1834C13.4391 14.1834 13.2284 14.3941 13.2284 14.653V17.6367C13.2284 18.2273 13.6529 18.7207 14.2129 18.8275C14.1829 18.45 14.1677 18.0718 14.1677 17.6942V14.653C14.1677 14.3941 13.957 14.1834 13.698 14.1834ZM34.8322 14.653V17.6941C34.8322 18.0717 34.817 18.45 34.7869 18.8274C35.3469 18.7206 35.7715 18.2272 35.7715 17.6366V14.653C35.7715 14.3941 35.5608 14.1834 35.3018 14.1834C35.0429 14.1834 34.8322 14.3941 34.8322 14.653ZM15.5766 8.07776V10.2781C16.1241 9.51187 16.6873 9.01762 16.9719 8.79294C17.147 8.65467 17.1734 8.59183 17.1734 8.31277V7.05524C16.508 7.19501 15.9893 7.51991 15.5766 8.07776ZM31.8265 8.31277C31.8265 8.59183 31.8528 8.65467 32.0281 8.79303C32.3127 9.01762 32.8758 9.51197 33.4233 10.2782V7.85768C33.4233 6.70131 32.837 5.47206 31.8265 4.40032V8.31277ZM45.7266 47.2936C45.7266 45.4131 45.3682 42.8103 44.7431 40.1525C44.0909 37.3796 43.4702 35.9162 43.2232 35.627C43.1703 35.5864 42.9072 35.4194 41.8484 35.1131C41.4746 35.005 41.2592 34.6144 41.3674 34.2406C41.4756 33.8669 41.8662 33.6518 42.24 33.7597C43.3861 34.0913 43.97 34.3546 44.2559 34.6682C45.3669 35.8873 47.1355 42.9965 47.1355 47.2936C47.1355 47.6826 46.8201 47.998 46.431 47.998C46.0419 47.998 45.7266 47.6826 45.7266 47.2936ZM20.7857 24.2139C20.5271 23.9232 20.5532 23.478 20.8439 23.2194C21.1347 22.9608 21.5799 22.9869 21.8385 23.2776C22.5545 24.0826 23.4998 24.5261 24.5 24.5261C25.5003 24.5261 26.4454 24.0827 27.1614 23.2776C27.42 22.9869 27.8653 22.9609 28.156 23.2194C28.4467 23.4779 28.4727 23.9232 28.2142 24.2139C27.2272 25.3237 25.9081 25.9349 24.5 25.9349C24.4999 25.9349 24.5 25.9349 24.4999 25.9349C23.0919 25.9349 21.7727 25.3237 20.7857 24.2139ZM18.46 17.4284C18.1849 17.1532 18.1849 16.7072 18.4601 16.432C18.7351 16.157 19.1812 16.1569 19.4563 16.4321C19.7303 16.7061 20.0945 16.857 20.482 16.857C20.8695 16.857 21.2338 16.706 21.5079 16.432C21.7828 16.157 22.2289 16.1569 22.5041 16.4321C22.7792 16.7073 22.7792 17.1533 22.504 17.4284C21.9639 17.9685 21.2458 18.2659 20.482 18.2659C19.7182 18.2659 19.0001 17.9685 18.46 17.4284ZM26.4959 17.4284C26.2207 17.1532 26.2207 16.7072 26.4959 16.432C26.771 16.1569 27.217 16.157 27.4922 16.4321C27.7662 16.7061 28.1304 16.857 28.5179 16.857C28.9053 16.857 29.2697 16.706 29.5437 16.4321C29.8188 16.157 30.2649 16.157 30.5399 16.4321C30.815 16.7073 30.815 17.1533 30.5399 17.4284C29.9998 17.9685 29.2816 18.2659 28.5179 18.2659C27.754 18.2659 27.0359 17.9685 26.4959 17.4284ZM30.5967 14.6155C29.6777 14.1275 28.1252 14.1275 27.2062 14.6155C26.8625 14.798 26.4361 14.6674 26.2536 14.3237C26.0711 13.9801 26.2018 13.5536 26.5454 13.3711C27.8666 12.6695 29.9364 12.6694 31.2575 13.3711C31.6011 13.5536 31.7318 13.98 31.5493 14.3237C31.4226 14.5621 31.1787 14.6979 30.9265 14.6979C30.8151 14.6979 30.702 14.6714 30.5967 14.6155ZM17.4507 14.3237C17.2683 13.9801 17.3989 13.5536 17.7425 13.3711C19.0635 12.6694 21.1335 12.6694 22.4545 13.3711C22.7981 13.5536 22.9288 13.98 22.7463 14.3237C22.5639 14.6673 22.1376 14.798 21.7936 14.6155C20.8747 14.1276 19.3221 14.1276 18.4032 14.6155C18.2979 14.6714 18.1849 14.6979 18.0734 14.6979C17.8213 14.6979 17.5772 14.562 17.4507 14.3237ZM19.917 47.998C19.7565 47.998 19.5951 47.9435 19.463 47.8318C19.353 47.739 16.7504 45.528 15.0344 42.9084C14.8212 42.5829 14.9122 42.1462 15.2376 41.933C15.563 41.7198 15.9996 41.8108 16.213 42.1363C17.8175 44.5858 20.3466 46.7338 20.3719 46.7552C20.6692 47.0062 20.7067 47.4507 20.4557 47.748C20.3163 47.913 20.1173 47.998 19.917 47.998ZM40.6172 43.4455C40.6172 45.0869 39.6196 45.8623 38.1095 47.0361C37.8038 47.2737 37.4572 47.543 37.0889 47.8423C36.9594 47.9475 36.802 48 36.6447 48C36.4873 48 36.3298 47.9474 36.2005 47.8423C35.8322 47.543 35.4858 47.2737 35.18 47.0362C34.0175 46.1326 33.1587 45.4651 32.8248 44.457L32.8256 44.4527C31.3039 46.3273 29.6648 47.7241 29.5373 47.8318C29.24 48.0827 28.7958 48.0453 28.5447 47.7481C28.2938 47.4509 28.3311 47.0065 28.6282 46.7554C30.1368 45.4802 34.0521 41.5723 34.0521 38.8399C34.0521 37.0636 32.9994 33.6167 32.6755 32.5981C31.6547 32.1149 30.8533 31.5707 30.263 31.0968V32.077C30.263 37.3071 28.8483 41.2815 27.6615 43.6946C26.3648 46.3312 25.0669 47.7195 25.0123 47.7774C24.8792 47.9183 24.694 47.998 24.5002 47.998C24.3064 47.998 24.1212 47.9182 23.9881 47.7774C23.9335 47.7195 22.6355 46.3312 21.3389 43.6946C20.1521 41.2815 18.7375 37.3071 18.7375 32.077V31.0967C18.1472 31.5707 17.3458 32.1149 16.325 32.5981C16.0391 33.4965 15.1863 36.2854 14.9884 38.1655C14.9477 38.5524 14.6025 38.8328 14.2141 38.7924C13.8272 38.7516 13.5465 38.405 13.5872 38.018C13.7451 36.5179 14.267 34.5559 14.6501 33.2536C14.4715 33.31 14.2881 33.3637 14.1 33.4144C13.1467 33.6716 11.9746 33.9418 10.8412 34.2031C9.00099 34.6274 6.22462 35.2676 5.77714 35.6264C5.53048 35.9145 4.90942 37.3779 4.25698 40.1522C3.63198 42.8099 3.27345 45.4127 3.27345 47.2933C3.27345 47.6823 2.95812 47.9977 2.56897 47.9977C2.17982 47.9977 1.8645 47.6823 1.8645 47.2933C1.8645 42.9962 3.6331 35.887 4.74401 34.6679C5.27142 34.0891 6.9104 33.6634 10.5245 32.8302C11.6456 32.5718 12.8046 32.3045 13.7328 32.054C16.6037 31.2794 18.2537 29.7029 18.7372 29.1822V28.2583C18.1693 27.7618 17.6324 27.1887 17.1345 26.5433C15.7568 24.7581 14.8085 22.5553 14.3976 20.2573C12.9721 20.2342 11.8195 19.0674 11.8195 17.6365V14.653C11.8195 13.6172 12.6623 12.7744 13.6981 12.7744C13.8603 12.7744 14.0176 12.7951 14.1678 12.8339V7.86783C14.1677 7.86022 14.1677 7.8527 14.1678 7.84519C14.172 6.15568 15.0319 4.43057 16.5903 2.98621C16.8757 2.7217 17.3214 2.73861 17.586 3.02397C17.8504 3.30933 17.8336 3.75502 17.5482 4.01953C16.9132 4.608 16.4155 5.25771 16.079 5.9216C16.5932 5.70406 17.1552 5.59717 17.7572 5.57256C17.8239 5.56101 17.8955 5.55913 17.9629 5.5673C19.2952 5.55265 20.8092 5.91494 22.4243 6.3595C23.8291 6.74612 27.2949 7.49408 29.1346 6.09227C29.933 5.48389 30.352 4.53502 30.4105 3.19802C28.8502 2.13032 26.7925 1.40894 24.5 1.40894C22.9867 1.40894 21.4671 1.7331 20.1055 2.34627C19.751 2.50595 19.3336 2.34815 19.1739 1.99328C19.0142 1.63851 19.1722 1.22137 19.5269 1.06169C21.069 0.367077 22.7887 0 24.5 0C27.1604 0 29.7316 0.858798 31.7399 2.41831C33.7051 3.94429 34.8323 5.92686 34.8323 7.85777V12.834C34.9825 12.7952 35.1398 12.7745 35.3019 12.7745C36.3378 12.7745 37.1805 13.6173 37.1805 14.6531V17.6368C37.1805 19.0677 36.028 20.2346 34.6024 20.2576C34.1916 22.5556 33.2433 24.7583 31.8656 26.5436C31.3675 27.1891 30.8309 27.762 30.2628 28.2586V29.1845C30.6336 29.5874 31.6994 30.6226 33.51 31.431C33.5271 31.4379 33.544 31.4454 33.5607 31.4535C34.0709 31.6784 34.6395 31.885 35.2672 32.0543C36.1959 32.3049 37.3556 32.5723 38.4771 32.8308L39.0142 32.9548C39.3933 33.0426 39.6295 33.4209 39.5418 33.8C39.4541 34.1791 39.0757 34.4151 38.6967 34.3276L38.1606 34.2039C37.0266 33.9424 35.854 33.6721 34.9002 33.4148C34.7122 33.364 34.5287 33.3103 34.35 33.2539C34.8068 34.8072 35.4609 37.2998 35.4609 38.8401C35.4609 39.529 35.2872 40.2453 35 40.9594C35.0543 40.9558 35.109 40.9535 35.1642 40.9535C35.7049 40.9535 36.2217 41.1282 36.6447 41.4407C37.0676 41.1283 37.5844 40.9535 38.1251 40.9535C39.4993 40.9533 40.6172 42.0714 40.6172 43.4455ZM35.1641 42.3623C34.5668 42.3623 34.0809 42.8482 34.0809 43.4455C34.0809 44.3542 34.5527 44.7643 36.0445 45.9238C36.2306 46.0684 36.4316 46.2247 36.6446 46.3931C36.8575 46.2247 37.0585 46.0684 37.2448 45.9237C38.7365 44.7643 39.2083 44.3542 39.2083 43.4456C39.2083 42.8483 38.7223 42.3623 38.125 42.3623C37.7654 42.3623 37.4299 42.5404 37.2275 42.8387C37.0964 43.0319 36.8781 43.1476 36.6446 43.1476C36.4111 43.1476 36.1928 43.0319 36.0616 42.8387C35.8593 42.5403 35.5237 42.3623 35.1641 42.3623Z" fill="url(#paint0_linear_152_241)"/>
</g>
<defs>
<linearGradient id="paint0_linear_152_241" x1="1.8645" y1="24" x2="47.1355" y2="24" gradientUnits="userSpaceOnUse">
<stop stop-color="#F1458D"/>
<stop offset="1" stop-color="#EC0A52"/>
</linearGradient>
<clipPath id="clip0_152_241">
<rect width="48" height="48" fill="white" transform="translate(0.5)"/>
</clipPath>
</defs>
</svg>
