<svg width="41" height="40" viewBox="0 0 41 40" fill="none" xmlns="http://www.w3.org/2000/svg">
<path d="M33.5999 13.4833C33.5999 14.1833 33.5499 14.8666 33.4666 15.5166C32.6999 15.1833 31.8666 14.9999 30.9833 14.9999C28.9499 14.9999 27.1499 15.9833 26.0333 17.4833C24.8999 15.9833 23.0999 14.9999 21.0666 14.9999C17.6499 14.9999 14.8833 17.7833 14.8833 21.2333C14.8833 25.6999 17.2499 29.1166 19.8833 31.4333C19.7999 31.4833 19.7166 31.5 19.6333 31.5333C19.1333 31.7166 18.2999 31.7166 17.7999 31.5333C13.4833 30.05 3.83325 23.9166 3.83325 13.4833C3.83325 8.88328 7.53324 5.16663 12.0999 5.16663C14.8166 5.16663 17.2166 6.46661 18.7166 8.48328C20.2332 6.46661 22.6332 5.16663 25.3332 5.16663C29.8999 5.16663 33.5999 8.88328 33.5999 13.4833Z" stroke="#A129FF" stroke-width="1.5" stroke-linecap="round" stroke-linejoin="round"/>
<path d="M37.1666 21.2333C37.1666 29.0333 29.95 33.6333 26.7166 34.7333C26.3333 34.8667 25.7166 34.8667 25.3333 34.7333C23.9499 34.2667 21.8333 33.15 19.8833 31.4333C17.25 29.1166 14.8833 25.7 14.8833 21.2333C14.8833 17.7833 17.65 15 21.0666 15C23.1 15 24.9 15.9833 26.0333 17.4833C27.15 15.9833 28.95 15 30.9833 15C31.8666 15 32.7 15.1833 33.4666 15.5167C35.65 16.4833 37.1666 18.6667 37.1666 21.2333Z" stroke="#A129FF" stroke-width="1.5" stroke-linecap="round" stroke-linejoin="round"/>
</svg>
