<svg width="20" height="20" viewBox="0 0 20 20" fill="none" xmlns="http://www.w3.org/2000/svg">
<path d="M15.1166 18.0166C14.3833 18.2333 13.5166 18.3333 12.5 18.3333H7.49997C6.4833 18.3333 5.61663 18.2333 4.8833 18.0166C5.06663 15.85 7.29163 14.1416 9.99997 14.1416C12.7083 14.1416 14.9333 15.85 15.1166 18.0166Z" stroke="#F1458D" stroke-width="1.5" stroke-linecap="round" stroke-linejoin="round"/>
<path d="M12.5001 1.66675H7.50008C3.33341 1.66675 1.66675 3.33341 1.66675 7.50008V12.5001C1.66675 15.6501 2.61675 17.3751 4.88342 18.0167C5.06675 15.8501 7.29175 14.1417 10.0001 14.1417C12.7084 14.1417 14.9334 15.8501 15.1167 18.0167C17.3834 17.3751 18.3334 15.6501 18.3334 12.5001V7.50008C18.3334 3.33341 16.6667 1.66675 12.5001 1.66675ZM10.0001 11.8084C8.35008 11.8084 7.01675 10.4668 7.01675 8.81676C7.01675 7.16676 8.35008 5.83341 10.0001 5.83341C11.6501 5.83341 12.9834 7.16676 12.9834 8.81676C12.9834 10.4668 11.6501 11.8084 10.0001 11.8084Z" stroke="#F1458D" stroke-width="1.5" stroke-linecap="round" stroke-linejoin="round"/>
<path d="M12.9833 8.8166C12.9833 10.4666 11.6499 11.8082 9.99994 11.8082C8.34994 11.8082 7.0166 10.4666 7.0166 8.8166C7.0166 7.1666 8.34994 5.83325 9.99994 5.83325C11.6499 5.83325 12.9833 7.1666 12.9833 8.8166Z" stroke="#F1458D" stroke-width="1.5" stroke-linecap="round" stroke-linejoin="round"/>
</svg>
