<svg width="41" height="40" viewBox="0 0 41 40" fill="none" xmlns="http://www.w3.org/2000/svg">
<path d="M35.4999 19.1667C35.4999 27.9167 28.4166 35 19.6666 35C10.9166 35 3.83325 27.9167 3.83325 19.1667C3.83325 10.4167 10.9166 3.33337 19.6666 3.33337" stroke="#FDAD51" stroke-width="2" stroke-linecap="round" stroke-linejoin="round"/>
<path d="M37.1666 36.6667L33.8333 33.3334" stroke="#FDAD51" stroke-width="2" stroke-linecap="round" stroke-linejoin="round"/>
<path d="M24.6668 10.2167C24.0834 8.38339 24.7668 6.10005 26.7001 5.48339C27.7168 5.15005 28.9668 5.43339 29.6834 6.41672C30.3501 5.40005 31.6501 5.16672 32.6501 5.48339C34.5834 6.10005 35.2668 8.38339 34.6834 10.2167C33.7668 13.1334 30.5668 14.6501 29.6834 14.6501C28.7834 14.6501 25.6168 13.1667 24.6668 10.2167Z" stroke="#FDAD51" stroke-width="2" stroke-linecap="round" stroke-linejoin="round"/>
</svg>
