<svg width="24" height="24" viewBox="0 0 24 24" fill="none" xmlns="http://www.w3.org/2000/svg">
<path d="M12.286 20.1172L19.8797 12.5235C21.7453 10.6485 22.0172 7.58284 20.2547 5.62347C19.8127 5.1297 19.2746 4.73123 18.6734 4.45242C18.0722 4.17361 17.4205 4.02031 16.758 4.00188C16.0956 3.98346 15.4363 4.1003 14.8205 4.34526C14.2047 4.59022 13.6454 4.95816 13.1766 5.42659L11.7516 6.86097L10.5235 5.62347C8.64847 3.75784 5.58284 3.48597 3.62347 5.24847C3.1297 5.69049 2.73123 6.22854 2.45242 6.82975C2.17361 7.43096 2.02031 8.08271 2.00188 8.74517C1.98346 9.40762 2.1003 10.0669 2.34526 10.6827C2.59022 11.2984 2.95816 11.8578 3.42659 12.3266L11.2172 20.1172C11.3594 20.2581 11.5515 20.3371 11.7516 20.3371C11.9517 20.3371 12.1438 20.2581 12.286 20.1172V20.1172Z" stroke="#F1458D" stroke-width="1.5" stroke-linecap="round" stroke-linejoin="round"/>
</svg>
