<svg width="49" height="48" viewBox="0 0 49 48" fill="none" xmlns="http://www.w3.org/2000/svg">
<g clip-path="url(#clip0_152_275)">
<path d="M33.3941 13.5214C30.1566 13.5214 27.0935 14.5209 24.5 16.4166C22.8838 15.2353 21.0853 14.4023 19.1757 13.9422L23.2342 9.29109C23.2356 9.28949 23.2365 9.28762 23.2378 9.28602C23.2619 9.25799 23.2834 9.22799 23.3028 9.19649C23.3059 9.19143 23.309 9.18646 23.312 9.1814C23.33 9.15037 23.3457 9.11802 23.359 9.08418C23.361 9.07893 23.3628 9.07368 23.3648 9.06834C23.3772 9.03431 23.3875 8.99924 23.3945 8.96306C23.3952 8.95977 23.3954 8.95649 23.396 8.95331C23.4021 8.91946 23.4056 8.88487 23.4067 8.84962C23.4069 8.84493 23.4073 8.84034 23.4073 8.83565C23.4073 8.83312 23.4077 8.83059 23.4077 8.82806C23.4077 8.7944 23.4045 8.76149 23.4 8.72924C23.3991 8.72287 23.3982 8.71668 23.3971 8.71031C23.3911 8.67459 23.3827 8.63971 23.3714 8.60615C23.3699 8.60174 23.3682 8.59743 23.3667 8.59302C23.3539 8.55712 23.3389 8.52224 23.3208 8.48934C23.3201 8.48793 23.3191 8.48662 23.3184 8.48521C23.2989 8.45024 23.2765 8.41715 23.2514 8.38621C23.2507 8.38527 23.2502 8.38424 23.2495 8.38331L23.2468 8.38012L20.1078 4.52681C19.974 4.36256 19.7733 4.26721 19.5615 4.26721H17.1711H14.0403H11.6501C11.4382 4.26721 11.2376 4.36256 11.1038 4.52681L7.96484 8.37956L7.96222 8.38274C7.96147 8.38368 7.961 8.38471 7.96025 8.38565C7.93522 8.41659 7.91291 8.44968 7.89331 8.48465C7.89256 8.48606 7.89162 8.48737 7.89087 8.48877C7.87278 8.52177 7.85778 8.55665 7.84503 8.59246C7.84344 8.59687 7.84166 8.60118 7.84025 8.60559C7.82909 8.63924 7.82066 8.67412 7.81456 8.70974C7.81353 8.71602 7.81259 8.72231 7.81166 8.72868C7.80706 8.76112 7.80397 8.79384 7.80397 8.82749C7.80397 8.83012 7.80434 8.83256 7.80434 8.83509C7.80444 8.83977 7.80491 8.84437 7.805 8.84906C7.80603 8.8844 7.80959 8.91899 7.81569 8.95274C7.81625 8.95602 7.81653 8.95931 7.81719 8.96249C7.82422 8.99877 7.83453 9.03384 7.84691 9.06777C7.84887 9.07312 7.85066 9.07837 7.85272 9.08362C7.86594 9.11746 7.88169 9.14981 7.89969 9.18084C7.90259 9.1859 7.90578 9.19087 7.90887 9.19593C7.92828 9.22752 7.94994 9.25743 7.97384 9.28546C7.97525 9.28706 7.97609 9.28893 7.9775 9.29052L12.0405 13.9471C5.42628 15.5541 0.5 21.5257 0.5 28.6273C0.5 36.9568 7.27653 43.7332 15.6058 43.7332C18.8433 43.7332 21.9064 42.7337 24.5 40.838C27.0935 42.7336 30.1565 43.7332 33.3942 43.7332C41.7236 43.7332 48.5 36.9567 48.5 28.6273C48.5 20.2979 41.7235 13.5214 33.3941 13.5214ZM19.2268 5.6759L21.2204 8.12315H18.9277L18.1387 5.6759H19.2268ZM18.9166 9.53231H21.1533L17.5641 13.6458C17.5423 13.6431 17.5209 13.64 17.4993 13.6372L18.9166 9.53231ZM14.5537 5.67581H16.6581L17.4471 8.12306H13.7647L14.5537 5.67581ZM17.4258 9.5324L16.0461 13.5284C15.8997 13.5243 15.7531 13.5215 15.606 13.5215C15.5157 13.5215 15.4229 13.5229 15.3287 13.5249C15.2744 13.5259 15.2201 13.5267 15.1658 13.5283L13.7861 9.5324H17.4258ZM11.985 5.67581H13.073L12.2841 8.12306H9.99144L11.985 5.67581ZM10.0586 9.5324H12.2952L13.7134 13.6397C13.6921 13.6424 13.6708 13.6451 13.6497 13.6478L10.0586 9.5324ZM15.6058 42.3239C8.05353 42.3239 1.90925 36.1796 1.90925 28.6273C1.90925 21.7952 6.93762 16.1157 13.4877 15.0946C13.6512 15.0692 13.8154 15.0471 13.9801 15.0276C14.0007 15.0251 14.0214 15.0228 14.042 15.0204C14.2632 14.9952 14.4852 14.9769 14.7073 14.9624C14.7108 14.9622 14.7142 14.9629 14.7177 14.9626C14.8815 14.9521 15.0317 14.9444 15.1733 14.9391C15.3176 14.9345 15.4618 14.9306 15.6058 14.9306C15.894 14.9306 16.1802 14.9489 16.4916 14.969C16.5068 14.9699 16.522 14.9704 16.537 14.9704C16.5483 14.9704 16.5594 14.9683 16.5706 14.9677C16.947 14.9961 17.3304 15.0403 17.7276 15.1021C17.7638 15.1077 17.8001 15.1104 17.836 15.1104C17.8375 15.1104 17.8391 15.1102 17.8406 15.1101C20.1056 15.4782 22.2257 16.4082 24.0643 17.8538C24.2537 18.0027 24.4393 18.1569 24.621 18.3159C24.7979 18.4708 24.9708 18.6306 25.1398 18.7945C25.231 18.8831 25.3213 18.9727 25.41 19.0638C25.6633 19.3235 25.9064 19.5932 26.1384 19.872C26.1384 19.872 26.1384 19.872 26.1385 19.8721C28.1787 22.3237 29.3024 25.4331 29.3024 28.6272C29.3024 31.5932 28.3335 34.486 26.5618 36.847C26.558 36.8438 26.5541 36.8408 26.5502 36.8377C26.4527 36.7563 26.3565 36.6733 26.2618 36.5885C26.2437 36.5721 26.2259 36.555 26.2078 36.5385C26.132 36.4696 26.0569 36.4 25.983 36.329C25.9507 36.2978 25.9193 36.266 25.8873 36.2344C25.8286 36.1765 25.7701 36.1183 25.7128 36.0591C25.6782 36.0231 25.644 35.9867 25.6099 35.9504C25.5565 35.8937 25.5034 35.8364 25.4512 35.7785C25.4352 35.7608 25.4196 35.7427 25.4038 35.725C26.5409 34.157 27.2875 32.3351 27.5722 30.4215C27.6294 30.0366 27.3639 29.6781 26.979 29.6209C26.5936 29.5634 26.2356 29.8293 26.1784 30.214C25.9473 31.7671 25.3704 33.2513 24.4986 34.5568C23.322 32.8024 22.7044 30.7706 22.7044 28.6271C22.7044 26.4836 23.3221 24.4519 24.4986 22.6975C25.4626 24.1396 26.0611 25.7899 26.239 27.5226C26.2763 27.8853 26.5823 28.1553 26.9391 28.1553C26.9632 28.1553 26.9875 28.1541 27.0119 28.1515C27.3991 28.1118 27.6807 27.7656 27.6409 27.3786C27.4036 25.0667 26.5075 22.8834 25.0497 21.0649C24.463 20.3331 23.7935 19.6716 23.0557 19.0942C22.9503 19.0117 22.8434 18.9309 22.7353 18.8521C20.6544 17.3319 18.189 16.5283 15.6058 16.5283C12.6945 16.5283 9.88109 17.5774 7.68397 19.4821C7.38997 19.737 7.35828 20.182 7.61309 20.476C7.868 20.77 8.31303 20.8017 8.60703 20.5469C10.5479 18.8642 13.0334 17.9376 15.6058 17.9376C17.6423 17.9376 19.5949 18.5042 21.2979 19.5799C19.3522 22.1809 18.2879 25.3636 18.2879 28.627C18.2879 31.8904 19.3522 35.0732 21.2979 37.6742C19.5949 38.7499 17.6423 39.3165 15.6058 39.3165C9.7115 39.3165 4.91628 34.5212 4.91628 28.627C4.91628 26.435 5.57478 24.3286 6.82053 22.5355C7.04262 22.216 6.9635 21.7769 6.64391 21.5548C6.32431 21.3326 5.88528 21.4118 5.66328 21.7314C4.25263 23.7617 3.50703 26.1461 3.50703 28.627C3.50703 35.2983 8.9345 40.7257 15.6058 40.7257C17.9714 40.7257 20.238 40.052 22.2012 38.7709C22.2185 38.7899 22.2365 38.8084 22.2538 38.8272C22.3003 38.8778 22.3472 38.928 22.3944 38.9781C22.4395 39.0261 22.4847 39.0739 22.5305 39.1213C22.5784 39.1709 22.627 39.2199 22.6755 39.2689C22.7218 39.3156 22.7682 39.3621 22.815 39.4082C22.8642 39.4565 22.914 39.5041 22.9638 39.5517C23.0113 39.5971 23.0588 39.6426 23.1069 39.6874C23.1572 39.7342 23.2082 39.7805 23.2592 39.8266C23.2932 39.8573 23.3263 39.8887 23.3604 39.9191C21.0767 41.4955 18.4137 42.3239 15.6058 42.3239ZM33.3941 42.3239C30.2926 42.3239 27.3676 41.3131 24.9355 39.4008C24.178 38.805 23.48 38.1261 22.8613 37.3825C20.821 34.9307 19.6973 31.8215 19.6973 28.6273C19.6973 25.6614 20.6661 22.7686 22.438 20.4075C22.4416 20.4105 22.4454 20.4134 22.449 20.4164C22.5467 20.4979 22.643 20.581 22.7378 20.666C22.7566 20.6828 22.7749 20.7006 22.7937 20.7176C22.8688 20.786 22.9434 20.855 23.0166 20.9255C23.0493 20.957 23.0812 20.9893 23.1135 21.0213C23.1717 21.0786 23.2297 21.1364 23.2865 21.1951C23.3217 21.2315 23.3563 21.2685 23.3908 21.3053C23.4436 21.3615 23.4961 21.418 23.5478 21.4753C23.564 21.4933 23.58 21.5117 23.5961 21.5299C22.1085 23.5837 21.2952 26.0816 21.2952 28.6274C21.2952 31.3684 22.238 34.054 23.9502 36.1895C24.6206 37.0257 25.3993 37.7703 26.2644 38.4023C28.3453 39.9225 30.8108 40.7261 33.394 40.7261C36.558 40.7261 39.5506 39.5126 41.8204 37.3093C42.0996 37.0383 42.1062 36.5922 41.8351 36.3129C41.5641 36.0336 41.118 36.0272 40.8387 36.2982C38.8334 38.2448 36.1895 39.3169 33.3939 39.3169C31.3573 39.3169 29.4047 38.7501 27.7017 37.6745C29.6473 35.0736 30.7116 31.8907 30.7116 28.6273C30.7116 25.3639 29.6473 22.1811 27.7017 19.5801C29.4047 18.5045 31.3573 17.9378 33.3939 17.9378C39.2881 17.9378 44.0833 22.7331 44.0833 28.6273C44.0833 30.6114 43.536 32.5482 42.5005 34.2281C42.2962 34.5594 42.3993 34.9935 42.7305 35.1977C43.0618 35.402 43.4959 35.2988 43.7001 34.9676C44.8728 33.0652 45.4927 30.8728 45.4927 28.6273C45.4927 21.9561 40.0652 16.5286 33.394 16.5286C31.0284 16.5286 28.7617 17.2024 26.7985 18.4835C26.7817 18.465 26.7642 18.447 26.7474 18.4286C26.6997 18.3766 26.6515 18.325 26.603 18.2736C26.5591 18.227 26.5153 18.1805 26.4708 18.1344C26.4215 18.0834 26.3716 18.033 26.3216 17.9826C26.2767 17.9375 26.2318 17.8923 26.1864 17.8476C26.1357 17.7979 26.0844 17.7487 26.0329 17.6996C25.9869 17.6556 25.9409 17.6117 25.8944 17.5684C25.8423 17.5198 25.7894 17.4719 25.7365 17.4241C25.7038 17.3946 25.6721 17.3644 25.6393 17.3352C27.9231 15.7593 30.5861 14.9309 33.394 14.9309C40.9463 14.9309 47.0906 21.0752 47.0906 28.6275C47.0908 36.1796 40.9465 42.3239 33.3941 42.3239Z" fill="url(#paint0_linear_152_275)"/>
</g>
<defs>
<linearGradient id="paint0_linear_152_275" x1="0.5" y1="24.0002" x2="48.5" y2="24.0002" gradientUnits="userSpaceOnUse">
<stop stop-color="#F1458D"/>
<stop offset="1" stop-color="#EC0A52"/>
</linearGradient>
<clipPath id="clip0_152_275">
<rect width="48" height="48" fill="white" transform="translate(0.5)"/>
</clipPath>
</defs>
</svg>
