<svg width="49" height="48" viewBox="0 0 49 48" fill="none" xmlns="http://www.w3.org/2000/svg">
<g clip-path="url(#clip0_152_212)">
<path d="M11.2568 46.9415C11.1477 46.9415 11.0369 46.916 10.9334 46.8621C9.58391 46.1617 5.13059 43.7604 4.48569 42.2714C3.82344 40.7421 3.40222 33.2753 3.86844 31.3268C4.01291 30.7229 4.18775 30.2032 4.403 29.738C4.56612 29.3857 4.98397 29.2321 5.33647 29.3951C5.68888 29.5582 5.84234 29.9761 5.67931 30.3285C5.50362 30.7083 5.35869 31.1419 5.23616 31.6541C4.80856 33.4413 5.27609 40.5581 5.77625 41.7127C6.08281 42.4205 9.02825 44.2889 11.5814 45.6142C11.9261 45.7929 12.0605 46.2174 11.8816 46.562C11.7563 46.8031 11.5109 46.9414 11.2568 46.9415ZM43.3874 46.9412C43.1779 46.9412 42.9703 46.8479 42.8318 46.6696C42.5935 46.3629 42.649 45.9214 42.9554 45.6831C44.6738 44.3468 47.0938 41.9489 47.0938 40.8006C47.0938 30.9942 45.9101 26.1418 45.4724 25.4709C45.084 25.2387 43.3359 24.8359 42.1692 24.5666C41.4131 24.3924 40.6315 24.2122 39.9893 24.0397C40.3233 25.2087 40.7419 26.8892 40.7419 27.9654C40.7419 29.3103 39.5274 31.1549 37.029 33.6052C35.2708 35.3299 33.542 36.693 33.4692 36.75C33.164 36.9903 32.722 36.9371 32.482 36.6319C32.242 36.3266 32.2948 35.8846 32.6001 35.6446C32.6174 35.6309 34.3488 34.2652 36.0526 32.5932C39.0158 29.6852 39.3358 28.3882 39.3358 27.9654C39.3358 26.8043 38.6782 24.4988 38.3362 23.4244C37.8635 23.1937 37.4607 22.945 37.1259 22.7069V22.9109C37.1259 29.7606 33.6709 33.496 33.5239 33.6517C33.3911 33.7923 33.2062 33.872 33.0128 33.872C32.8194 33.872 32.6345 33.7923 32.5017 33.6517C32.3547 33.496 28.8997 29.7604 28.8997 22.9109V22.7069C28.2301 23.1832 27.2883 23.7018 26.0613 24.0331C25.4142 24.2076 24.6216 24.3905 23.855 24.567C23.5392 24.6398 23.2232 24.7128 22.9165 24.7851C22.5381 24.8751 22.1598 24.6403 22.0706 24.2624C21.9813 23.8846 22.2153 23.5058 22.5933 23.4167C22.9024 23.3437 23.2209 23.2702 23.5391 23.1968C24.2931 23.023 25.0729 22.8432 25.6949 22.6753C27.4899 22.191 28.5342 21.2521 28.8998 20.8715V20.436C28.6789 20.2382 28.4652 20.0239 28.2599 19.7935C27.1119 18.5061 26.3141 16.8301 25.9857 15.0317C24.9759 14.6235 24.2363 13.2821 24.2363 12.1394C24.2363 10.9885 24.6844 10.1977 25.4965 9.85772C23.7405 6.23747 22.8264 5.27578 18.5394 5.44097C18.2769 5.45053 18.0318 5.31468 17.9019 5.08734C17.8701 5.0339 17.0399 3.66862 15.1563 3.66862C13.2728 3.66862 12.4426 5.0339 12.4082 5.09203C12.2782 5.31947 12.0343 5.45287 11.7734 5.44115C10.1485 5.37909 8.87141 5.85168 7.75128 6.92953C3.87275 10.6613 1.90625 21.7804 1.90625 39.9774C1.90625 40.3658 1.59144 40.6806 1.20312 40.6806C0.814812 40.6806 0.5 40.3658 0.5 39.9774C0.5 21.1214 2.55284 9.97987 6.77591 5.91618C8.08016 4.66106 9.60941 4.04193 11.4407 4.02965C11.9213 3.42159 13.1063 2.26237 15.156 2.26237C17.1996 2.26237 18.3836 3.41437 18.8669 4.02393C22.7285 3.93431 24.2829 4.8615 25.8189 7.46756V6.58406C25.8189 5.21128 26.6108 3.80897 27.9917 2.73693C29.3855 1.65468 31.1684 1.05872 33.0123 1.05872C34.8562 1.05872 36.6393 1.65468 38.0329 2.73693C39.414 3.80906 40.206 5.21137 40.206 6.58406V9.75131C41.2213 10.0048 41.7891 10.8442 41.7891 12.1396C41.7891 13.3448 41.0945 14.6666 40.0368 15.0476C39.7067 16.84 38.9103 18.51 37.7656 19.7937C37.5603 20.024 37.3468 20.2382 37.1257 20.4362V20.8687C37.4972 21.2511 38.5561 22.1967 40.3306 22.6754C40.9523 22.8431 41.7314 23.0228 42.4852 23.1967C45.0787 23.7947 46.0966 24.0622 46.4994 24.5041C47.4827 25.5833 48.5 31.9742 48.5 40.8006C48.5 41.8419 47.7117 43.1403 46.0902 44.7697C44.969 45.8966 43.8646 46.7572 43.8183 46.7933C43.69 46.8929 43.5381 46.9412 43.3874 46.9412ZM31.9061 30.1539C32.3066 30.9799 32.7079 31.6095 33.0106 32.0346C33.3133 31.6072 33.7157 30.9735 34.1173 30.1437L33.3985 22.0978C33.1416 22.116 32.8828 22.116 32.6259 22.0978L31.9061 30.1539ZM30.3057 21.4215V22.9111C30.3057 24.4387 30.4932 25.798 30.7776 26.9819L31.2387 21.8207C30.9215 21.7152 30.6098 21.5819 30.3057 21.4215ZM34.7856 21.8208L35.2459 26.9728C35.5312 25.7893 35.7193 24.4323 35.7193 22.911V21.4214C35.415 21.582 35.1031 21.7154 34.7856 21.8208ZM26.5093 11.0766C26.0034 11.0795 25.8717 11.2511 25.8282 11.3079C25.7066 11.4667 25.6422 11.7543 25.6422 12.1396C25.6422 12.8705 26.234 13.7496 26.6055 13.7496C26.9578 13.7496 27.2558 14.0103 27.3025 14.3594C27.7787 17.9178 30.2868 20.7052 33.0125 20.7052C35.7382 20.7052 38.2464 17.9178 38.7226 14.3594C38.7693 14.0102 39.0672 13.7496 39.4196 13.7496C39.8697 13.7496 40.3828 12.892 40.3828 12.1396C40.3828 11.2356 40.0992 11.0766 39.5029 11.0766C39.1145 11.0766 38.7998 10.7618 38.7998 10.3734V6.58406C38.7998 4.67925 36.2718 2.46487 33.0126 2.46487C31.8288 2.46487 30.7412 2.75709 29.8364 3.22059C29.8372 5.5574 31.0122 6.0704 31.8961 6.2534C32.8466 6.4499 33.9422 6.36515 35.0019 6.28303C35.58 6.23822 36.1779 6.1919 36.7485 6.1919C37.1368 6.1919 37.4517 6.50662 37.4517 6.89503C37.4517 7.28353 37.1368 7.59815 36.7485 7.59815C36.2322 7.59815 35.6874 7.64034 35.1103 7.68515C33.9531 7.77478 32.7567 7.86712 31.6112 7.6305C29.8363 7.26337 28.7514 6.04097 28.4913 4.14993C27.6955 4.884 27.2254 5.76281 27.2254 6.58415V10.3579C27.2253 10.8339 26.9023 11.0766 26.5093 11.0766ZM19.0548 46.9412C18.9281 46.9412 18.8015 46.9071 18.6897 46.8389C18.4797 46.7115 18.3517 46.4836 18.3517 46.2381C18.3517 45.8973 18.2495 45.6493 18.0299 45.4576C17.3525 44.8657 15.7647 44.9252 15.2555 44.9936C15.0755 45.0191 14.8876 44.975 14.7348 44.8605L9.56647 40.9925C9.47281 40.93 9.38291 40.8625 9.29694 40.7906C9.27631 40.7748 9.25672 40.7578 9.23834 40.7403C8.60234 40.1797 8.20053 39.3593 8.20053 38.4469C8.20053 36.7613 9.57181 35.39 11.2574 35.39C11.5973 35.39 11.9316 35.4466 12.2479 35.555C12.6462 34.3294 13.7994 33.4406 15.1561 33.4406C16.5129 33.4406 17.6661 34.3293 18.0643 35.555C18.3807 35.4467 18.7149 35.39 19.0548 35.39C19.8421 35.39 20.5608 35.689 21.1033 36.1798C21.3356 34.8787 21.5487 33.6556 21.5741 33.4235C21.5622 31.8319 20.3648 30.5412 18.8947 30.5412C18.3419 30.5412 17.3185 30.8184 15.5817 32.1391C15.3301 32.3305 14.982 32.3305 14.7305 32.1391C12.9938 30.8184 11.9702 30.5412 11.4175 30.5412C9.94006 30.5412 8.738 31.8448 8.738 33.4474C8.738 33.8358 8.42319 34.1505 8.03488 34.1505C7.64656 34.1505 7.33175 33.8358 7.33175 33.4474C7.33175 31.0695 9.16456 29.135 11.4175 29.135C12.4538 29.135 13.6802 29.6496 15.1561 30.7056C16.6321 29.6495 17.8586 29.135 18.8948 29.135C21.1477 29.135 22.9805 31.0695 22.9805 33.4474C22.9805 33.522 22.9804 33.7487 22.1111 38.5147C22.0917 39.4 21.6942 40.1937 21.074 40.7405C21.0555 40.7581 21.0359 40.775 21.0153 40.7909C20.9293 40.8629 20.8394 40.9302 20.7459 40.9925L17.208 43.6402C17.8279 43.7507 18.4661 43.9726 18.9523 44.3962C19.2082 44.619 19.4055 44.8837 19.5408 45.1827C21.8712 43.9107 24.2618 42.346 24.5361 41.7127C25.0362 40.5581 25.5037 33.4413 25.0763 31.6542C24.5151 29.3083 23.5083 28.3807 20.3927 27.3386C20.1846 27.2691 19.9936 27.2081 19.8185 27.1523C18.3641 26.6884 17.6966 26.3887 17.5093 24.8912C16.7615 25.1779 15.967 25.3274 15.1562 25.3274C14.3455 25.3274 13.5509 25.1777 12.8032 24.8912C12.6158 26.3888 11.9483 26.6885 10.4938 27.1523C10.3186 27.2083 10.1277 27.2691 9.91953 27.3387C8.85603 27.6943 8.08381 28.024 7.48925 28.3759C7.15522 28.5736 6.72387 28.4633 6.52606 28.1289C6.32825 27.7949 6.43878 27.3636 6.773 27.1658C7.45522 26.7619 8.31341 26.3932 9.47356 26.0051C9.68844 25.9331 9.88569 25.8703 10.0665 25.8125C10.6887 25.614 11.0998 25.4828 11.2437 25.3007C11.3648 25.1472 11.4301 24.7976 11.4487 24.1864C11.0908 23.9459 10.7515 23.6692 10.4352 23.3583C9.54594 22.4843 8.86531 21.3627 8.44625 20.1036C8.38334 20.1532 8.32222 20.1992 8.26494 20.2422C7.86191 20.5449 7.72259 20.6697 7.72259 21.0611C7.72259 21.4525 7.86191 21.5774 8.26494 21.88C8.70453 22.2101 9.36894 22.7093 9.36894 23.8234C9.36894 24.2118 9.05412 24.5265 8.66581 24.5265C8.2775 24.5265 7.96269 24.2118 7.96269 23.8234C7.96269 23.4318 7.82328 23.3071 7.42034 23.0045C6.98075 22.6744 6.31634 22.1752 6.31634 21.0611C6.31634 19.9471 6.98075 19.4481 7.42034 19.1178C7.62509 18.9639 7.76169 18.8562 7.84662 18.7361C6.98412 18.2146 6.37962 17.0192 6.37962 15.986C6.37962 14.6907 6.94728 13.8512 7.96259 13.5976V13.3676C7.96259 9.40106 11.1896 6.17428 15.156 6.17428C19.1225 6.17428 22.3495 9.40125 22.3495 13.3676V13.5976C23.3648 13.8512 23.9325 14.6905 23.9325 15.986C23.9325 17.1917 23.2374 18.5139 22.179 18.8943C21.8492 20.6423 21.0423 22.2129 19.877 23.3582C19.5607 23.6691 19.2214 23.9457 18.8635 24.1863C18.882 24.7974 18.9474 25.1471 19.0685 25.3006C19.2122 25.4827 19.6233 25.6139 20.2456 25.8124C20.4265 25.87 20.6236 25.933 20.8385 26.0049C23.9616 27.0495 25.686 28.1592 26.4437 31.327C26.9099 33.2756 26.4886 40.7426 25.8265 42.2716C25.1816 43.7606 20.7283 46.1618 19.3787 46.8622C19.277 46.9149 19.1658 46.9412 19.0548 46.9412ZM12.5967 41.5037L15.1561 43.4193L17.7156 41.5037H12.5967ZM10.3774 39.8428C10.6322 40.0042 10.9341 40.0974 11.2573 40.0974H19.0548C19.3781 40.0974 19.6798 40.0042 19.9348 39.8428L20.1431 39.6869C20.4851 39.3865 20.7022 38.9473 20.7056 38.4584C20.7055 38.4511 20.7055 38.4438 20.7056 38.4365C20.6999 37.5311 19.9616 36.7962 19.0549 36.7962C18.6543 36.7962 18.2678 36.942 17.9665 37.2067C17.7517 37.3955 17.4442 37.4352 17.1884 37.3076C16.9327 37.18 16.7797 36.9103 16.8013 36.6253C16.8051 36.5751 16.8069 36.5345 16.8069 36.4977C16.8069 35.5875 16.0664 34.8471 15.1562 34.8471C14.246 34.8471 13.5056 35.5875 13.5056 36.4977C13.5056 36.5347 13.5073 36.5751 13.5112 36.6253C13.5327 36.9103 13.3798 37.18 13.124 37.3076C12.8682 37.4351 12.5607 37.3954 12.346 37.2067C12.0447 36.942 11.6581 36.7962 11.2575 36.7962C10.3473 36.7962 9.60687 37.5367 9.60687 38.4469C9.60687 38.9407 9.82475 39.3844 10.1694 39.6871L10.3774 39.8428ZM21.5743 33.443V33.4448C21.5743 33.4442 21.5743 33.4436 21.5743 33.443ZM12.6549 23.2855C13.4083 23.6959 14.2553 23.9209 15.1561 23.9209C16.057 23.9209 16.904 23.6959 17.6575 23.2854C17.7411 23.2016 17.8458 23.1389 17.9629 23.1057C19.4748 22.1478 20.5588 20.4113 20.8599 18.2522C20.8475 16.3057 20.0504 15.6927 17.6925 14.8544C17.5655 14.8093 17.4364 14.7638 17.3057 14.7178C14.9326 13.8827 11.9793 12.8433 11.9793 10.139C11.9793 9.75047 12.2941 9.43584 12.6824 9.43584C13.0707 9.43584 13.3856 9.75047 13.3856 10.139C13.3856 11.8474 15.7163 12.6677 17.7726 13.3912C17.9046 13.4377 18.0352 13.4836 18.1635 13.5294C20.099 14.2176 21.747 14.9887 22.1643 17.1509C22.3749 16.8344 22.5264 16.3946 22.5264 15.9858C22.5264 15.0817 22.2427 14.9227 21.6464 14.9227C21.2581 14.9227 20.9433 14.608 20.9433 14.2195V13.3674C20.9433 10.1764 18.3472 7.58034 15.1561 7.58034C11.9651 7.58034 9.36894 10.1764 9.36894 13.3674V14.2195C9.36894 14.608 9.05412 14.9227 8.66581 14.9227C8.06966 14.9227 7.78597 15.0817 7.78597 15.9858C7.78597 16.7167 8.37762 17.5957 8.74925 17.5957C9.10156 17.5957 9.3995 17.8565 9.44619 18.2056C9.73803 20.3863 10.8269 22.1408 12.3494 23.1058C12.4665 23.1389 12.5712 23.2017 12.6549 23.2855ZM33.0125 43.8939C32.5731 43.8939 32.2156 43.5365 32.2156 43.0971C32.2156 42.6577 32.5731 42.3002 33.0125 42.3002C33.452 42.3002 33.8094 42.6577 33.8094 43.0971C33.8094 43.5365 33.4519 43.8939 33.0125 43.8939ZM33.0125 40.1439C32.5731 40.1439 32.2156 39.7865 32.2156 39.3471C32.2156 38.9077 32.5731 38.5502 33.0125 38.5502C33.452 38.5502 33.8094 38.9077 33.8094 39.3471C33.8094 39.7865 33.4519 40.1439 33.0125 40.1439ZM15.1561 22.7451C14.307 22.7451 13.5136 22.3787 12.9219 21.7133C12.6639 21.4231 12.6898 20.9787 12.9801 20.7206C13.2703 20.4626 13.7147 20.4886 13.9727 20.7787C14.2939 21.14 14.7141 21.3388 15.1561 21.3388C15.5982 21.3388 16.0183 21.14 16.3395 20.7787C16.5976 20.4886 17.0421 20.4626 17.3323 20.7206C17.6224 20.9787 17.6485 21.4231 17.3904 21.7133C16.7986 22.3787 16.0051 22.7451 15.1561 22.7451ZM33.0125 18.9985C31.9972 18.9985 31.0474 18.5592 30.3383 17.762C30.0801 17.4718 30.1061 17.0273 30.3963 16.7692C30.6867 16.5112 31.1309 16.5373 31.389 16.8274C31.8278 17.3207 32.4042 17.5923 33.0125 17.5923C33.6207 17.5923 34.1975 17.3207 34.6362 16.8274C34.8943 16.5373 35.3387 16.5112 35.6288 16.7693C35.9189 17.0274 35.945 17.4718 35.6869 17.762C34.9776 18.5593 34.0277 18.9985 33.0125 18.9985ZM17.8647 18.3099C17.3126 18.3099 16.7605 18.0997 16.3402 17.6794C16.0656 17.4047 16.0656 16.9596 16.3402 16.6851C16.6148 16.4105 17.06 16.4105 17.3345 16.6851C17.6268 16.9776 18.1024 16.9776 18.3947 16.6851C18.6693 16.4105 19.1145 16.4105 19.389 16.6851C19.6636 16.9597 19.6636 17.4049 19.389 17.6794C18.9688 18.0997 18.4168 18.3099 17.8647 18.3099ZM12.4475 18.3099C11.8953 18.3099 11.3433 18.0998 10.923 17.6794C10.6484 17.4047 10.6484 16.9596 10.923 16.6851C11.1976 16.4105 11.6428 16.4105 11.9173 16.6851C12.2098 16.9777 12.6854 16.9774 12.9777 16.6851C13.2523 16.4105 13.6974 16.4104 13.9721 16.6852C14.2467 16.9597 14.2466 17.405 13.9721 17.6794C13.5517 18.0997 12.9995 18.3099 12.4475 18.3099ZM35.7211 13.8288C35.1451 13.8288 34.6038 13.6044 34.1965 13.1973C33.9219 12.9226 33.922 12.4774 34.1966 12.203C34.4712 11.9285 34.9165 11.9284 35.1909 12.2031C35.3324 12.3447 35.5208 12.4227 35.7209 12.4227C35.9211 12.4227 36.1094 12.3447 36.2509 12.2031C36.5256 11.9284 36.9708 11.9283 37.2452 12.203C37.5198 12.4776 37.5199 12.9228 37.2453 13.1973C36.8384 13.6045 36.2969 13.8288 35.7211 13.8288ZM30.3039 13.8288C29.7279 13.8288 29.1866 13.6044 28.7792 13.1973C28.5046 12.9226 28.5047 12.4774 28.7794 12.203C29.054 11.9285 29.4992 11.9284 29.7736 12.2031C29.9152 12.3447 30.1036 12.4227 30.3037 12.4227C30.5038 12.4227 30.6922 12.3447 30.8337 12.2031C31.1083 11.9284 31.5535 11.9285 31.8281 12.203C32.1027 12.4776 32.1027 12.9228 31.8281 13.1973C31.4212 13.6045 30.8798 13.8288 30.3039 13.8288Z" fill="url(#paint0_linear_152_212)"/>
</g>
<defs>
<linearGradient id="paint0_linear_152_212" x1="0.5" y1="24.0001" x2="48.5" y2="24.0001" gradientUnits="userSpaceOnUse">
<stop stop-color="#F1458D"/>
<stop offset="1" stop-color="#EC0A52"/>
</linearGradient>
<clipPath id="clip0_152_212">
<rect width="48" height="48" fill="white" transform="translate(0.5)"/>
</clipPath>
</defs>
</svg>
