<svg width="166" height="40" viewBox="0 0 166 40" fill="none" xmlns="http://www.w3.org/2000/svg">
<path fill-rule="evenodd" clip-rule="evenodd" d="M38.7185 19.0958C41.1985 15.1801 39.9882 10.2201 35.9419 7.77573C33.9128 6.58914 31.8007 6.2213 29.475 6.7434C25.2626 7.70454 23.6844 11.2524 20.8247 11.4067C17.5853 11.6322 15.7105 7.85879 12.6966 6.601C5.4821 3.77692 -3.61906 11.3948 1.49515 19.2382C10.7506 33.5129 10.2166 22.2759 12.6254 15.0258C12.922 13.9935 11.5693 11.6915 12.5542 11.6915C17.7396 13.2459 13.99 19.9027 12.6254 23.154C12.3999 23.6761 12.7796 24.3405 13.3729 24.4829C13.895 24.6372 14.429 24.3406 14.7256 23.8185L16.1614 20.5672C16.1614 20.6384 16.0902 20.7808 16.1614 20.935L13.8357 26.9985C13.6103 27.5918 13.99 28.2563 14.5833 28.3987C15.1884 28.6123 15.7817 28.2444 16.019 27.663L18.3448 21.5995V21.8962L16.2445 28.8496C16.0902 29.4429 16.3869 30.1074 16.992 30.2498C17.5972 30.4752 18.2736 30.1074 18.499 29.5141L20.6111 22.4895C20.6111 22.4183 20.6823 22.3352 20.6823 22.264L20.9078 21.5995L19.472 27.5918C19.3178 28.3275 19.6263 29.1462 20.2196 29.2886C20.8959 29.5141 21.7265 29.0632 21.8689 28.3275L23.4471 21.7538C23.5183 21.9792 23.5895 22.3471 23.6725 22.7861C23.9692 23.593 24.9541 24.4117 25.7016 24.4829C26.1525 24.5541 26.461 24.5541 26.9831 24.2575C27.9561 23.593 26.8407 23.0709 26.2356 22.5607L29.2495 19.9027C31.1243 18.2771 33.1534 20.8638 31.7295 22.1216C30.6022 23.154 22.7826 35.8742 16.7666 33.8096C14.1324 32.8484 19.2466 37.3575 24.7405 33.1451C30.3768 28.7784 37.3777 21.1605 38.7304 19.0958H38.7185ZM25.1083 17.9923L30.448 12C32.0262 10.1489 29.2495 7.92999 27.7426 9.62681C25.7135 12 25.0371 14.8004 25.1083 17.9804V17.9923ZM25.1083 18.4313C25.1795 19.6891 25.488 20.9469 26.0101 22.2759C26.0101 22.3471 26.0813 22.3471 26.0813 22.4301L32.5483 16.07C34.1264 14.5156 31.7176 11.9288 29.914 13.6968L25.0965 18.4313H25.1083Z" fill="#F1458D"/>
<path d="M57.456 28.168C55.904 28.168 54.496 27.808 53.232 27.088C51.968 26.352 50.968 25.336 50.232 24.04C49.512 22.728 49.152 21.248 49.152 19.6C49.152 17.952 49.512 16.48 50.232 15.184C50.968 13.872 51.968 12.856 53.232 12.136C54.496 11.4 55.904 11.032 57.456 11.032C59.024 11.032 60.44 11.4 61.704 12.136C62.968 12.856 63.96 13.872 64.68 15.184C65.4 16.48 65.76 17.952 65.76 19.6C65.76 21.248 65.4 22.728 64.68 24.04C63.96 25.336 62.968 26.352 61.704 27.088C60.44 27.808 59.024 28.168 57.456 28.168ZM57.456 26.704C58.704 26.704 59.824 26.416 60.816 25.84C61.808 25.264 62.592 24.44 63.168 23.368C63.744 22.28 64.032 21.024 64.032 19.6C64.032 18.176 63.744 16.928 63.168 15.856C62.592 14.784 61.808 13.96 60.816 13.384C59.824 12.808 58.704 12.52 57.456 12.52C56.208 12.52 55.088 12.808 54.096 13.384C53.104 13.96 52.32 14.784 51.744 15.856C51.168 16.928 50.88 18.176 50.88 19.6C50.88 21.024 51.168 22.28 51.744 23.368C52.32 24.44 53.104 25.264 54.096 25.84C55.088 26.416 56.208 26.704 57.456 26.704ZM70.5381 16.312V24.448C70.5381 25.248 70.6901 25.8 70.9941 26.104C71.2981 26.408 71.8341 26.56 72.6021 26.56H74.1381V28H72.3381C71.1541 28 70.2741 27.728 69.6981 27.184C69.1221 26.624 68.8341 25.712 68.8341 24.448V16.312H67.0101V14.896H68.8341V11.608H70.5381V14.896H74.1381V16.312H70.5381ZM82.6688 14.656C83.6608 14.656 84.5488 14.864 85.3328 15.28C86.1328 15.696 86.7568 16.336 87.2048 17.2C87.6688 18.048 87.9008 19.088 87.9008 20.32V28H86.2448V20.512C86.2448 19.088 85.8848 18 85.1648 17.248C84.4608 16.496 83.4928 16.12 82.2608 16.12C80.9968 16.12 79.9888 16.52 79.2368 17.32C78.4848 18.12 78.1088 19.296 78.1088 20.848V28H76.4288V10.24H78.1088V17.128C78.5248 16.344 79.1328 15.736 79.9328 15.304C80.7488 14.872 81.6608 14.656 82.6688 14.656ZM102.992 20.776C102.992 21.352 102.976 21.792 102.944 22.096H92.0723C92.1203 23.088 92.3603 23.936 92.7923 24.64C93.2243 25.344 93.7923 25.88 94.4963 26.248C95.2003 26.6 95.9683 26.776 96.8003 26.776C97.8883 26.776 98.8003 26.512 99.5363 25.984C100.288 25.456 100.784 24.744 101.024 23.848H102.8C102.48 25.128 101.792 26.176 100.736 26.992C99.6963 27.792 98.3843 28.192 96.8003 28.192C95.5683 28.192 94.4643 27.92 93.4883 27.376C92.5123 26.816 91.7443 26.032 91.1843 25.024C90.6403 24 90.3683 22.808 90.3683 21.448C90.3683 20.088 90.6403 18.896 91.1843 17.872C91.7283 16.848 92.4883 16.064 93.4643 15.52C94.4403 14.976 95.5523 14.704 96.8003 14.704C98.0483 14.704 99.1363 14.976 100.064 15.52C101.008 16.064 101.728 16.8 102.224 17.728C102.736 18.64 102.992 19.656 102.992 20.776ZM101.288 20.728C101.304 19.752 101.104 18.92 100.688 18.232C100.288 17.544 99.7363 17.024 99.0323 16.672C98.3283 16.32 97.5603 16.144 96.7283 16.144C95.4803 16.144 94.4163 16.544 93.5363 17.344C92.6563 18.144 92.1683 19.272 92.0723 20.728H101.288ZM107.266 17.224C107.634 16.408 108.194 15.776 108.946 15.328C109.714 14.88 110.65 14.656 111.754 14.656V16.408H111.298C110.082 16.408 109.106 16.736 108.37 17.392C107.634 18.048 107.266 19.144 107.266 20.68V28H105.586V14.896H107.266V17.224ZM133.2 11.152V28H129.096V21.064H122.712V28H118.608V11.152H122.712V17.752H129.096V11.152H133.2ZM134.867 21.28C134.867 19.904 135.123 18.696 135.635 17.656C136.163 16.616 136.875 15.816 137.771 15.256C138.667 14.696 139.667 14.416 140.771 14.416C141.715 14.416 142.539 14.608 143.243 14.992C143.963 15.376 144.515 15.88 144.899 16.504V14.608H149.003V28H144.899V26.104C144.499 26.728 143.939 27.232 143.219 27.616C142.515 28 141.691 28.192 140.747 28.192C139.659 28.192 138.667 27.912 137.771 27.352C136.875 26.776 136.163 25.968 135.635 24.928C135.123 23.872 134.867 22.656 134.867 21.28ZM144.899 21.304C144.899 20.28 144.611 19.472 144.035 18.88C143.475 18.288 142.787 17.992 141.971 17.992C141.155 17.992 140.459 18.288 139.883 18.88C139.323 19.456 139.043 20.256 139.043 21.28C139.043 22.304 139.323 23.12 139.883 23.728C140.459 24.32 141.155 24.616 141.971 24.616C142.787 24.616 143.475 24.32 144.035 23.728C144.611 23.136 144.899 22.328 144.899 21.304ZM155.596 10.24V28H151.492V10.24H155.596ZM164.81 18.016H162.602V28H158.498V18.016H157.01V14.608H158.498V14.224C158.498 12.576 158.97 11.328 159.914 10.48C160.858 9.616 162.242 9.184 164.066 9.184C164.37 9.184 164.594 9.192 164.738 9.208V12.688C163.954 12.64 163.402 12.752 163.082 13.024C162.762 13.296 162.602 13.784 162.602 14.488V14.608H164.81V18.016Z" fill="#23262F"/>
</svg>
